# xmcd CD database file
#
# Track frame offsets:
#	150
#	20996
#	49721
#	68860
#	87124
#	99845
#	125653
#	137118
#	155835
#	174386
#
# Disc length: 2675 seconds
#
# Revision: 0
# Processed by: cddbd v1.5.1PL2 Copyright (c) Steve Scherf et al.
# Submitted via: CDex 1.60beta1
#
DISCID=870a710a
DTITLE=にやりずむ - ふんどCD
DYEAR=1900
DGENRE=サウンドトラック (一般)
TTITLE0=Scream Of Me (Version."Make A Key")
TTITLE1=The End Of Suspision (H&D Dub)
TTITLE2=夜霧の砂漠
TTITLE3=Mario Remix 〜マリオは実は26歳くらい〜
TTITLE4=コズミックノーウェーブ (宇宙にうねりなし)
TTITLE5=Crazy Lazy
TTITLE6=Complacency
TTITLE7=Hoshikage Curtain Call
TTITLE8=Fairy Of Summer
TTITLE9=今日だけの光
EXTD=
EXTT0=
EXTT1=
EXTT2=
EXTT3=
EXTT4=
EXTT5=
EXTT6=
EXTT7=
EXTT8=
EXTT9=
PLAYORDER=
